<svg width="800" height="180" fill="none" xmlns="http://www.w3.org/2000/svg"><path d="M84.5 163.5c43.907 0 79.5-35.593 79.5-79.5S128.407 4.5 84.5 4.5 5 40.093 5 84s35.593 79.5 79.5 79.5z" fill="#fff"/><path d="M110.351 31.282l-5.522 10.211c18.537 8.039 31.535 26.427 31.535 47.799 0 28.744-23.488 52.125-52.364 52.125-28.876 0-52.364-23.381-52.364-52.125 0-16.6 7.866-31.38 20.038-40.924l7.447-17.787C36.135 40.242 20 62.887 20 89.291 20 124.477 48.654 153 84 153c35.345 0 64-28.524 64-63.708 0-25.82-15.459-48.008-37.649-58.01z" fill="#0D73FC"/><path d="M84 83.5l-17.455 46.333 58.182-63.708H84.896L113.09 14H72.363l-29.09 69.5H84z" fill="#0D73FC"/><path d="M208.626 43.657h27.939c2.481 0 4.839.612 7.076 1.834 2.237 1.223 4.189 2.893 5.856 5.01 1.681 2.136 3.037 4.641 4.067 7.517 1.017 2.875 1.559 5.974 1.627 9.298h-9.313c0-3.324-.902-6.122-2.705-8.394-1.802-2.29-4.005-3.435-6.608-3.435h-27.939c-2.616 0-4.826 1.145-6.629 3.435-1.789 2.273-2.684 5.07-2.684 8.394v35.487c0 3.306.895 6.104 2.684 8.394 1.803 2.29 4.013 3.435 6.629 3.435h27.939c2.603 0 4.806-1.145 6.608-3.435 1.803-2.29 2.705-5.088 2.705-8.394h9.313c0 3.151-.481 6.147-1.444 8.988-.962 2.841-2.284 5.346-3.965 7.516-1.681 2.169-3.653 3.9-5.917 5.191a14.34 14.34 0 01-7.3 1.963h-27.939c-2.494 0-4.873-.611-7.137-1.834-2.264-1.222-4.25-2.901-5.958-5.036-1.708-2.135-3.057-4.641-4.047-7.516-.989-2.875-1.484-5.966-1.484-9.272V67.316c0-3.151.481-6.147 1.444-8.988.962-2.842 2.277-5.33 3.945-7.465 1.68-2.135 3.653-3.848 5.917-5.14a15.204 15.204 0 017.32-2.066zm119.198 0L295.229 85.06l32.595 41.402h-13.136l-27.939-35.487h-14.803v35.487h-9.313V43.658h9.313v35.487h14.803l27.939-35.487h13.136zm51.221 11.829h-27.939c-2.603 0-4.806 1.146-6.609 3.436-1.803 2.273-2.704 5.07-2.704 8.394v23.658h46.565V67.316c0-3.324-.902-6.122-2.705-8.394-1.803-2.29-4.005-3.435-6.608-3.435zm18.626 11.83v59.145h-9.313v-23.658h-46.565v23.658h-9.313V67.316c0-3.151.481-6.147 1.444-8.988.962-2.842 2.284-5.347 3.965-7.516 1.667-2.17 3.64-3.909 5.917-5.218a14.492 14.492 0 017.3-1.937h27.939c2.481 0 4.839.612 7.076 1.834 2.237 1.223 4.196 2.893 5.877 5.01 1.667 2.136 3.016 4.641 4.046 7.517 1.017 2.875 1.559 5.974 1.627 9.298zM448.892 20h9.313c0 3.151-.481 6.147-1.443 8.988-.963 2.841-2.285 5.346-3.966 7.516-1.667 2.17-3.633 3.9-5.896 5.191-2.278 1.309-4.718 1.963-7.321 1.963a14.74 14.74 0 01-7.178-1.834c-2.223-1.222-4.175-2.9-5.856-5.036-1.681-2.135-3.016-4.64-4.006-7.516-.989-2.875-1.518-5.966-1.586-9.272h9.313c0 3.306.902 6.104 2.705 8.394s4.006 3.435 6.608 3.435c2.603 0 4.806-1.145 6.609-3.435s2.704-5.088 2.704-8.394zm-41.908 106.462V43.658h9.313v65.654l46.565-65.654h9.313v82.804h-9.313V59.62l-46.565 66.842h-9.313zm129.447-82.805h27.939c2.48 0 4.839.612 7.076 1.834 2.237 1.223 4.195 2.893 5.876 5.01 1.681 2.136 3.03 4.641 4.047 7.517 1.03 2.875 1.572 5.974 1.626 9.298h-9.312c0-3.324-.902-6.122-2.705-8.394-1.789-2.29-3.992-3.435-6.608-3.435h-27.939c-2.603 0-4.806 1.145-6.609 3.435-1.803 2.273-2.704 5.07-2.704 8.394v35.487c0 3.306.901 6.104 2.704 8.394 1.803 2.29 4.006 3.435 6.609 3.435h27.939c2.616 0 4.819-1.145 6.608-3.435 1.803-2.29 2.705-5.088 2.705-8.394h9.312c0 3.151-.481 6.147-1.443 8.988-.963 2.841-2.278 5.346-3.945 7.516-1.681 2.169-3.653 3.9-5.917 5.191a14.378 14.378 0 01-7.32 1.963h-27.939c-2.481 0-4.853-.611-7.117-1.834-2.264-1.222-4.25-2.901-5.958-5.036-1.708-2.135-3.057-4.641-4.047-7.516-1.003-2.875-1.504-5.966-1.504-9.272V67.316c0-3.151.481-6.147 1.443-8.988.963-2.842 2.285-5.33 3.966-7.465 1.68-2.135 3.653-3.848 5.917-5.14a15.169 15.169 0 017.3-2.066zm108.97 59.146V67.316c0-3.324-.902-6.122-2.705-8.394-1.803-2.29-4.005-3.435-6.608-3.435h-27.939c-2.603 0-4.806 1.145-6.609 3.435-1.803 2.273-2.704 5.07-2.704 8.394v35.487c0 3.306.901 6.104 2.704 8.394 1.803 2.29 4.006 3.435 6.609 3.435h27.939c2.603 0 4.805-1.145 6.608-3.435s2.705-5.088 2.705-8.394zm9.313-35.487v35.487c0 3.237-.495 6.293-1.485 9.169-1.003 2.875-2.338 5.38-4.005 7.516-1.681 2.117-3.654 3.805-5.918 5.062-2.263 1.274-4.67 1.911-7.218 1.911h-27.939c-2.603 0-5.043-.611-7.32-1.834-2.264-1.222-4.23-2.901-5.897-5.036-1.681-2.135-3.003-4.641-3.965-7.516-.963-2.875-1.444-5.966-1.444-9.272V67.316c0-3.237.495-6.294 1.484-9.17.99-2.875 2.325-5.38 4.006-7.515s3.653-3.831 5.917-5.088c2.264-1.257 4.67-1.886 7.219-1.886h27.939c2.481 0 4.839.629 7.076 1.886 2.237 1.257 4.209 2.953 5.917 5.088 1.708 2.135 3.071 4.64 4.087 7.516 1.031 2.875 1.546 5.932 1.546 9.169zm26.068 39.026h13.034v-42.59h-13.034c-2.603 0-4.806 1.145-6.609 3.435s-2.704 5.088-2.704 8.394v18.932c0 3.323.901 6.121 2.704 8.394 1.803 2.29 4.006 3.435 6.609 3.435zm35.401-42.59h-13.054v42.59h13.054c2.603 0 4.806-1.145 6.609-3.435 1.803-2.273 2.704-5.07 2.704-8.394V75.58c0-3.306-.901-6.104-2.704-8.394-1.803-2.29-4.006-3.435-6.609-3.435zm-22.367-11.829V40.094h9.313v11.83h13.054c2.535 0 4.941.636 7.219 1.91 2.264 1.257 4.229 2.953 5.897 5.088 1.681 2.118 3.016 4.615 4.006 7.49 1.003 2.893 1.504 5.95 1.504 9.17v18.93c0 3.238-.501 6.294-1.504 9.17-.99 2.875-2.325 5.381-4.006 7.516-1.668 2.135-3.633 3.831-5.897 5.088-2.278 1.257-4.684 1.885-7.219 1.885h-13.054V130h-9.313v-11.829h-13.034c-2.603 0-5.036-.611-7.3-1.834-2.264-1.222-4.236-2.892-5.917-5.01-1.681-2.135-3.003-4.641-3.966-7.516-.962-2.876-1.443-5.975-1.443-9.298V75.58c0-3.22.501-6.276 1.504-9.169.99-2.875 2.319-5.372 3.986-7.49 1.681-2.135 3.653-3.83 5.917-5.088 2.264-1.274 4.67-1.91 7.219-1.91h13.034zM800 55.486h-27.939v70.975h-9.313V55.487h-27.939v-11.83H800v11.83z" fill="#fff"/></svg>