<svg width="800" height="180" viewBox="0 0 800 180" fill="none" xmlns="http://www.w3.org/2000/svg">
<path d="M84.5 163.5C128.407 163.5 164 127.907 164 84C164 40.0934 128.407 4.5 84.5 4.5C40.5934 4.5 5 40.0934 5 84C5 127.907 40.5934 163.5 84.5 163.5Z" fill="white"/>
<path d="M110.351 31.2823L104.829 41.493C123.366 49.5319 136.364 67.9204 136.364 89.2917C136.364 118.036 112.876 141.417 84 141.417C55.1244 141.417 31.6364 118.036 31.6364 89.2917C31.6364 72.6928 39.5025 57.9124 51.6742 48.3678L59.1215 30.5815C36.1338 40.242 20 62.8875 20 89.2917C20 124.476 48.6545 153 84 153C119.345 153 148 124.476 148 89.2917C148 63.4724 132.541 41.2845 110.351 31.2823Z" fill="#0D73FC"/>
<path d="M83.9997 83.5L66.5452 129.833L124.727 66.125H84.8957L113.091 14H72.3634L43.2725 83.5H83.9997Z" fill="#0D73FC"/>
<path d="M208.626 43.6575H236.565C239.046 43.6575 241.404 44.2687 243.641 45.4912C245.878 46.7137 247.83 48.3839 249.497 50.5018C251.178 52.6369 252.534 55.1422 253.564 58.0177C254.581 60.8931 255.123 63.9925 255.191 67.3156H245.878C245.878 63.9925 244.976 61.1945 243.173 58.9216C241.371 56.6316 239.168 55.4865 236.565 55.4865H208.626C206.01 55.4865 203.8 56.6316 201.997 58.9216C200.208 61.1945 199.313 63.9925 199.313 67.3156V102.803C199.313 106.109 200.208 108.907 201.997 111.197C203.8 113.487 206.01 114.632 208.626 114.632H236.565C239.168 114.632 241.371 113.487 243.173 111.197C244.976 108.907 245.878 106.109 245.878 102.803H255.191C255.191 105.954 254.71 108.95 253.747 111.791C252.785 114.632 251.463 117.137 249.782 119.307C248.101 121.476 246.129 123.207 243.865 124.498C241.601 125.807 239.168 126.461 236.565 126.461H208.626C206.132 126.461 203.753 125.85 201.489 124.627C199.225 123.405 197.239 121.726 195.531 119.591C193.823 117.456 192.474 114.95 191.484 112.075C190.495 109.2 190 106.109 190 102.803V67.3156C190 64.1646 190.481 61.1686 191.444 58.3276C192.406 55.4865 193.721 52.9985 195.389 50.8634C197.069 48.7283 199.042 47.0151 201.306 45.7237C203.57 44.4151 206.01 43.7263 208.626 43.6575Z" fill="white"/>
<path d="M327.824 43.6575L295.229 85.0592L327.824 126.461H314.688L286.749 90.9738H271.946V126.461H262.633V43.6575H271.946V79.1447H286.749L314.688 43.6575H327.824Z" fill="white"/>
<path d="M379.045 55.4865H351.106C348.503 55.4865 346.3 56.6316 344.497 58.9216C342.694 61.1945 341.793 63.9925 341.793 67.3156V90.9738H388.358V67.3156C388.358 63.9925 387.456 61.1945 385.653 58.9216C383.85 56.6316 381.648 55.4865 379.045 55.4865ZM397.671 67.3156V126.461H388.358V102.803H341.793V126.461H332.48V67.3156C332.48 64.1646 332.961 61.1686 333.924 58.3276C334.886 55.4865 336.208 52.9813 337.889 50.8117C339.556 48.6422 341.529 46.9031 343.806 45.5945C346.07 44.3032 348.503 43.6575 351.106 43.6575H379.045C381.526 43.6575 383.884 44.2687 386.121 45.4912C388.358 46.7137 390.317 48.3839 391.998 50.5018C393.665 52.6369 395.014 55.1422 396.044 58.0177C397.061 60.8931 397.603 63.9925 397.671 67.3156Z" fill="white"/>
<path d="M448.892 20H458.205C458.205 23.151 457.724 26.147 456.762 28.988C455.799 31.8291 454.477 34.3344 452.796 36.5039C451.129 38.6734 449.163 40.4039 446.9 41.6952C444.622 43.0039 442.182 43.6582 439.579 43.6582C437.031 43.6582 434.638 43.0469 432.401 41.8244C430.178 40.6019 428.226 38.9231 426.545 36.788C424.864 34.6529 423.529 32.1476 422.539 29.2721C421.55 26.3967 421.021 23.3059 420.953 20H430.266C430.266 23.3059 431.168 26.1039 432.971 28.394C434.774 30.6841 436.977 31.8291 439.579 31.8291C442.182 31.8291 444.385 30.6841 446.188 28.394C447.991 26.1039 448.892 23.3059 448.892 20ZM406.984 126.462V43.6582H416.297V109.312L462.862 43.6582H472.175V126.462H462.862V59.6197L416.297 126.462H406.984Z" fill="white"/>
<path d="M536.431 43.6575H564.37C566.85 43.6575 569.209 44.2687 571.446 45.4912C573.683 46.7137 575.641 48.3839 577.322 50.5018C579.003 52.6369 580.352 55.1422 581.369 58.0177C582.399 60.8931 582.941 63.9925 582.995 67.3156H573.683C573.683 63.9925 572.781 61.1945 570.978 58.9216C569.189 56.6316 566.986 55.4865 564.37 55.4865H536.431C533.828 55.4865 531.625 56.6316 529.822 58.9216C528.019 61.1945 527.118 63.9925 527.118 67.3156V102.803C527.118 106.109 528.019 108.907 529.822 111.197C531.625 113.487 533.828 114.632 536.431 114.632H564.37C566.986 114.632 569.189 113.487 570.978 111.197C572.781 108.907 573.683 106.109 573.683 102.803H582.995C582.995 105.954 582.514 108.95 581.552 111.791C580.589 114.632 579.274 117.137 577.607 119.307C575.926 121.476 573.954 123.207 571.69 124.498C569.426 125.807 566.986 126.461 564.37 126.461H536.431C533.95 126.461 531.578 125.85 529.314 124.627C527.05 123.405 525.064 121.726 523.356 119.591C521.648 117.456 520.299 114.95 519.309 112.075C518.306 109.2 517.805 106.109 517.805 102.803V67.3156C517.805 64.1646 518.286 61.1686 519.248 58.3276C520.211 55.4865 521.533 52.9985 523.214 50.8634C524.894 48.7283 526.867 47.0151 529.131 45.7237C531.395 44.4151 533.828 43.7263 536.431 43.6575Z" fill="white"/>
<path d="M645.401 102.803V67.3156C645.401 63.9925 644.499 61.1945 642.696 58.9216C640.893 56.6316 638.691 55.4865 636.088 55.4865H608.149C605.546 55.4865 603.343 56.6316 601.54 58.9216C599.737 61.1945 598.836 63.9925 598.836 67.3156V102.803C598.836 106.109 599.737 108.907 601.54 111.197C603.343 113.487 605.546 114.632 608.149 114.632H636.088C638.691 114.632 640.893 113.487 642.696 111.197C644.499 108.907 645.401 106.109 645.401 102.803ZM654.714 67.3156V102.803C654.714 106.04 654.219 109.096 653.229 111.972C652.226 114.847 650.891 117.352 649.224 119.488C647.543 121.605 645.57 123.293 643.306 124.55C641.043 125.824 638.636 126.461 636.088 126.461H608.149C605.546 126.461 603.106 125.85 600.829 124.627C598.565 123.405 596.599 121.726 594.932 119.591C593.251 117.456 591.929 114.95 590.967 112.075C590.004 109.2 589.523 106.109 589.523 102.803V67.3156C589.523 64.0786 590.018 61.0223 591.007 58.1468C591.997 55.2713 593.332 52.766 595.013 50.6309C596.694 48.4959 598.666 46.7998 600.93 45.5429C603.194 44.2859 605.6 43.6575 608.149 43.6575H636.088C638.569 43.6575 640.927 44.2859 643.164 45.5429C645.401 46.7998 647.373 48.4959 649.081 50.6309C650.789 52.766 652.152 55.2713 653.168 58.1468C654.199 61.0223 654.714 64.0786 654.714 67.3156Z" fill="white"/>
<path d="M680.782 106.342H693.816V63.7521H680.782C678.179 63.7521 675.976 64.8972 674.173 67.1872C672.37 69.4773 671.469 72.2753 671.469 75.5812V94.5129C671.469 97.8361 672.37 100.634 674.173 102.907C675.976 105.197 678.179 106.342 680.782 106.342ZM716.183 63.7521H703.129V106.342H716.183C718.786 106.342 720.989 105.197 722.792 102.907C724.595 100.634 725.496 97.8361 725.496 94.5129V75.5812C725.496 72.2753 724.595 69.4773 722.792 67.1872C720.989 64.8972 718.786 63.7521 716.183 63.7521ZM693.816 51.9231V40.094H703.129V51.9231H716.183C718.718 51.9231 721.124 52.5602 723.402 53.8343C725.666 55.0913 727.631 56.7873 729.299 58.9224C730.98 61.0402 732.315 63.5369 733.305 66.4124C734.308 69.3051 734.809 72.3614 734.809 75.5812V94.5129C734.809 97.75 734.308 100.806 733.305 103.682C732.315 106.557 730.98 109.063 729.299 111.198C727.631 113.333 725.666 115.029 723.402 116.286C721.124 117.543 718.718 118.171 716.183 118.171H703.129V130H693.816V118.171H680.782C678.179 118.171 675.746 117.56 673.482 116.337C671.218 115.115 669.246 113.445 667.565 111.327C665.884 109.192 664.562 106.686 663.599 103.811C662.637 100.935 662.156 97.8361 662.156 94.5129V75.5812C662.156 72.3614 662.657 69.3051 663.66 66.4124C664.65 63.5369 665.979 61.0402 667.646 58.9224C669.327 56.7873 671.299 55.0913 673.563 53.8343C675.827 52.5602 678.233 51.9231 680.782 51.9231H693.816Z" fill="white"/>
<path d="M800 55.4865H772.061V126.461H762.748V55.4865H734.809V43.6575H800V55.4865Z" fill="white"/>
</svg>
